<svg xmlns="http://www.w3.org/2000/svg" viewBox="0 0 900 520" role="img" aria-label="Document generation interface">
  <defs>
    <linearGradient id="bg" x1="0" y1="0" x2="1" y2="1">
      <stop offset="0" stop-color="#042033"/>
      <stop offset="1" stop-color="#075985"/>
    </linearGradient>
    <linearGradient id="paper" x1="0" y1="0" x2="1" y2="1">
      <stop offset="0" stop-color="#f8fafc"/>
      <stop offset="1" stop-color="#bae6fd"/>
    </linearGradient>
  </defs>
  <rect width="900" height="520" fill="url(#bg)"/>
  <circle cx="730" cy="95" r="150" fill="#22d3ee" opacity=".18"/>
  <circle cx="140" cy="420" r="190" fill="#10b981" opacity=".13"/>
  <rect x="120" y="92" width="320" height="385" rx="22" fill="url(#paper)" opacity=".94"/>
  <rect x="164" y="146" width="160" height="18" rx="9" fill="#0369a1"/>
  <rect x="164" y="198" width="220" height="12" rx="6" fill="#0ea5e9" opacity=".65"/>
  <rect x="164" y="228" width="184" height="12" rx="6" fill="#0ea5e9" opacity=".45"/>
  <rect x="164" y="278" width="210" height="80" rx="14" fill="#075985" opacity=".16"/>
  <rect x="164" y="390" width="96" height="32" rx="16" fill="#00ff66" opacity=".75"/>
  <rect x="486" y="128" width="290" height="264" rx="28" fill="#020617" opacity=".72"/>
  <rect x="530" y="176" width="162" height="16" rx="8" fill="#38bdf8"/>
  <rect x="530" y="224" width="198" height="12" rx="6" fill="#a5f3fc" opacity=".72"/>
  <rect x="530" y="254" width="144" height="12" rx="6" fill="#a5f3fc" opacity=".48"/>
  <path d="M556 333h148" stroke="#00ff66" stroke-width="12" stroke-linecap="round"/>
</svg>
