<svg xmlns="http://www.w3.org/2000/svg" viewBox="0 0 900 520" role="img" aria-label="Social media app network">
  <defs>
    <linearGradient id="bg" x1="0" y1="0" x2="1" y2="1">
      <stop offset="0" stop-color="#061b3a"/>
      <stop offset=".55" stop-color="#312e81"/>
      <stop offset="1" stop-color="#0f766e"/>
    </linearGradient>
  </defs>
  <rect width="900" height="520" fill="url(#bg)"/>
  <circle cx="160" cy="130" r="130" fill="#38bdf8" opacity=".14"/>
  <circle cx="740" cy="390" r="180" fill="#00ff66" opacity=".12"/>
  <rect x="302" y="70" width="296" height="390" rx="44" fill="#020617" opacity=".76"/>
  <rect x="338" y="118" width="224" height="56" rx="20" fill="#0f172a"/>
  <circle cx="374" cy="146" r="17" fill="#00ff66"/>
  <rect x="406" y="136" width="116" height="10" rx="5" fill="#a5f3fc" opacity=".7"/>
  <rect x="338" y="204" width="224" height="98" rx="24" fill="#075985" opacity=".35"/>
  <rect x="338" y="326" width="96" height="22" rx="11" fill="#38bdf8"/>
  <rect x="456" y="326" width="76" height="22" rx="11" fill="#00ff66"/>
  <path d="M204 278c76-72 157-82 246-32 94 53 173 42 246-32" fill="none" stroke="#a5f3fc" stroke-width="8" opacity=".42"/>
  <circle cx="204" cy="278" r="28" fill="#38bdf8"/>
  <circle cx="450" cy="246" r="28" fill="#00ff66"/>
  <circle cx="696" cy="214" r="28" fill="#38bdf8"/>
</svg>
